<svg width="128" height="128" viewBox="0 0 128 128" fill="none" xmlns="http://www.w3.org/2000/svg">
<g clip-path="url(#clip0_4931_24837)">
<path d="M10.9521 46.5176L5.11218 52.3576C3.49578 53.9104 2.20978 55.7737 1.3313 57.8358C0.452815 59.8979 0 62.1162 0 64.3576C0 66.599 0.452815 68.8173 1.3313 70.8794C2.20978 72.9415 3.49578 74.8048 5.11218 76.3576L52.16 123.87C53.2751 125.011 54.573 125.957 56 126.67V69.0776L10.9521 46.5176Z" fill="#3D89F5"/>
<path d="M117.048 46.5176L122.888 52.3576C124.504 53.9104 125.79 55.7737 126.669 57.8358C127.547 59.8979 128 62.1162 128 64.3576C128 66.599 127.547 68.8173 126.669 70.8794C125.79 72.9415 124.504 74.8048 122.888 76.3576L75.84 123.87C74.7249 125.011 73.427 125.957 72 126.67V69.0776L117.048 46.5176Z" fill="#1656B9"/>
<mask id="mask0_4931_24837" style="mask-type:alpha" maskUnits="userSpaceOnUse" x="23" y="0" width="83" height="56">
<path d="M105.96 34.597L76.52 5.07709C74.9615 3.47073 73.0962 2.19358 71.0349 1.32147C68.9736 0.449363 66.7582 0 64.52 0C62.2818 0 60.0663 0.449363 58.005 1.32147C55.9437 2.19358 54.0786 3.47073 52.52 5.07709L23 34.597L64.36 55.2371L105.96 34.597Z" fill="#85B5F8"/>
</mask>
<g mask="url(#mask0_4931_24837)">
<path d="M64.5 48L26.5 28L69 -17L107.5 27L64.5 48Z" fill="url(#paint0_linear_4931_24837)"/>
<path d="M49.8854 48.3577L22.5 34.5L28.5 27L53.5341 39.3407C60.1416 42.598 67.879 42.6402 74.5217 39.4554L100.5 27L107.5 34.5L78.2456 48.6228C69.2671 52.9573 58.7813 52.8592 49.8854 48.3577Z" fill="url(#paint1_linear_4931_24837)"/>
<circle cx="55" cy="27" r="8" fill="url(#paint2_radial_4931_24837)"/>
<circle cx="60" cy="3" r="8" fill="url(#paint3_radial_4931_24837)"/>
<circle cx="82" cy="18" r="8" fill="url(#paint4_radial_4931_24837)"/>
</g>
</g>
<defs>
<linearGradient id="paint0_linear_4931_24837" x1="67" y1="-17" x2="67" y2="48" gradientUnits="userSpaceOnUse">
<stop stop-color="#F4E1C3"/>
<stop offset="1" stop-color="#F5A01D"/>
</linearGradient>
<linearGradient id="paint1_linear_4931_24837" x1="65" y1="27" x2="65" y2="55.5" gradientUnits="userSpaceOnUse">
<stop stop-color="#A14A0F"/>
<stop offset="1" stop-color="#DDAA52"/>
</linearGradient>
<radialGradient id="paint2_radial_4931_24837" cx="0" cy="0" r="1" gradientUnits="userSpaceOnUse" gradientTransform="translate(55 27) rotate(90) scale(8)">
<stop offset="0.836538" stop-color="#D93D29"/>
<stop offset="0.918269" stop-color="#E65A3B"/>
<stop offset="1" stop-color="#982401"/>
</radialGradient>
<radialGradient id="paint3_radial_4931_24837" cx="0" cy="0" r="1" gradientUnits="userSpaceOnUse" gradientTransform="translate(60 3) rotate(90) scale(8)">
<stop offset="0.836538" stop-color="#D93D29"/>
<stop offset="0.918269" stop-color="#E65A3B"/>
<stop offset="1" stop-color="#982401"/>
</radialGradient>
<radialGradient id="paint4_radial_4931_24837" cx="0" cy="0" r="1" gradientUnits="userSpaceOnUse" gradientTransform="translate(82 18) rotate(90) scale(8)">
<stop offset="0.836538" stop-color="#D93D29"/>
<stop offset="0.918269" stop-color="#E65A3B"/>
<stop offset="1" stop-color="#982401"/>
</radialGradient>
<clipPath id="clip0_4931_24837">
<rect width="128" height="128" fill="white"/>
</clipPath>
</defs>
</svg>
